# xmcd
#
# Track frame offsets: 
#        150
#        26366
#        46077
#        68966
#        89453
#        113011
#        141055
#        160807
#        191945
#        217224
#
# Disc length: 3209 seconds
#
# Revision: 0
# Processed by: cddbd v1.5.2PL0 Copyright (c) Steve Scherf et al.
# Submitted via: ExactAudioCopy v1.3
#
DISCID=8c0c870a
DTITLE=Kris Dollimore - All Grown Up
DYEAR=2015
DGENRE=Blues
TTITLE0=All Grown Up
TTITLE1=Sometimes You Need To Feel The Pain
TTITLE2=Evil People
TTITLE3=Easy
TTITLE4=Poor Boy (A Long Way From Home)
TTITLE5=Nada Nada
TTITLE6=Gamblin' Bar Room Blues
TTITLE7=Wade In The Water
TTITLE8=Summer Rain
TTITLE9=I Hear Someone Crying
EXTD=
EXTT0=
EXTT1=
EXTT2=
EXTT3=
EXTT4=
EXTT5=
EXTT6=
EXTT7=
EXTT8=
EXTT9=
PLAYORDER=
